<?xml version="1.0" standalone="no"?>
<!DOCTYPE svg PUBLIC "-//W3C//DTD SVG 20010904//EN"
 "http://www.w3.org/TR/2001/REC-SVG-20010904/DTD/svg10.dtd">
<svg version="1.0" xmlns="http://www.w3.org/2000/svg"
 width="1024.000000pt" height="1024.000000pt" viewBox="0 0 1024.000000 1024.000000"
 preserveAspectRatio="xMidYMid meet">

<g transform="translate(0.000000,1024.000000) scale(0.100000,-0.100000)"
fill="#000000" stroke="none">
<path d="M5855 7839 c-247 -34 -431 -142 -503 -296 -39 -85 -43 -183 -10 -255
14 -30 40 -71 59 -93 l34 -38 -32 6 c-61 12 -161 67 -201 111 -81 88 -87 206
-14 289 14 16 4 17 -199 17 -858 0 -1555 -162 -1937 -450 -94 -71 -223 -203
-281 -289 -93 -137 -157 -312 -168 -460 -7 -94 -10 -92 62 -36 158 125 414
223 740 284 489 91 1132 91 1480 1 177 -46 328 -148 381 -255 34 -71 36 -159
6 -229 -36 -80 -198 -221 -342 -296 -70 -36 -409 -268 -505 -345 -485 -389
-872 -899 -1141 -1505 -47 -106 -136 -359 -147 -418 l-7 -33 48 6 c26 4 115
20 197 36 626 124 1110 341 1555 697 126 102 417 392 515 517 232 291 386 585
440 841 19 88 19 271 1 367 -30 157 -125 329 -248 450 -63 62 -176 144 -222
161 -44 16 -1 16 86 0 348 -63 598 -292 653 -598 55 -307 -41 -647 -281 -994
-24 -35 -44 -65 -44 -68 0 -11 143 109 216 182 160 160 274 373 315 592 16 86
6 287 -19 377 -79 286 -263 494 -535 605 -296 121 -760 186 -1397 197 -344 6
-573 -3 -755 -28 -38 -5 -83 -11 -100 -14 l-30 -4 33 15 c46 20 342 91 477
114 370 63 890 71 1289 20 153 -20 382 -61 421 -76 15 -6 11 4 -17 38 -113
138 -133 277 -61 411 86 156 321 220 619 166 89 -16 316 -73 529 -134 359
-102 511 -129 735 -129 222 0 363 29 545 113 80 37 299 170 292 177 -2 2 -19
-1 -38 -6 -19 -6 -99 -22 -179 -37 -129 -23 -170 -26 -370 -26 -326 -1 -517
30 -930 150 -357 104 -468 133 -580 154 -124 23 -336 32 -435 18z m-536 -2356
c-46 -123 -168 -305 -275 -415 -244 -249 -501 -394 -806 -453 -100 -20 -391
-32 -368 -16 8 6 24 11 35 11 42 0 413 133 538 193 336 161 654 408 838 652
23 30 43 55 45 55 2 0 -1 -12 -7 -27z m-299 -730 c-83 -147 -213 -296 -364
-416 -118 -95 -180 -135 -303 -196 -241 -120 -421 -168 -663 -177 l-135 -5
175 59 c400 136 669 271 957 483 88 66 313 258 342 292 26 33 23 16 -9 -40z"/>
<path d="M8659 7511 c-328 -246 -596 -372 -899 -422 -165 -28 -469 -22 -623
11 -131 28 -314 84 -409 124 -43 19 -78 32 -78 29 0 -9 115 -110 179 -156 90
-66 241 -151 345 -193 91 -37 260 -84 305 -84 23 -1 24 -2 8 -11 -34 -20 -205
-23 -323 -5 -185 27 -305 68 -573 197 -90 44 -168 79 -172 79 -5 0 26 -44 68
-97 127 -162 299 -436 397 -631 107 -213 198 -487 242 -727 22 -121 30 -460
15 -596 -47 -402 -229 -804 -505 -1111 l-97 -108 127 0 126 0 62 49 c75 60
246 235 307 316 376 492 497 1078 339 1639 -70 247 -188 475 -348 669 -35 43
-62 80 -60 81 1 2 44 -3 93 -10 124 -18 334 -17 441 1 404 70 743 301 995 679
89 134 223 398 201 395 -4 0 -77 -54 -163 -118z"/>
<path d="M5908 7327 c-65 -30 -99 -84 -100 -157 0 -98 70 -170 167 -170 95 0
165 63 173 156 5 63 -21 117 -74 153 -41 28 -124 37 -166 18z"/>
<path d="M6656 5970 c23 -384 -127 -815 -401 -1155 -241 -298 -599 -579 -1042
-818 -272 -146 -657 -300 -1138 -452 -268 -85 -263 -83 -244 -84 15 -1 236 41
924 174 569 110 1005 170 1279 176 78 2 79 2 135 49 118 99 284 293 370 433
128 210 222 455 262 682 29 166 31 446 5 600 -27 161 -116 456 -147 490 -5 5
-7 -34 -3 -95z"/>
<path d="M2665 3764 c-39 -8 -108 -32 -155 -55 -70 -34 -101 -58 -175 -133
-150 -151 -213 -312 -202 -516 6 -120 27 -190 86 -290 76 -126 168 -210 308
-280 151 -74 291 -104 493 -103 279 1 522 62 1020 258 940 369 1427 499 2130
567 210 20 905 17 1090 -5 326 -39 597 -97 827 -176 l83 -28 -23 31 c-77 108
-286 255 -484 340 -662 283 -1755 283 -2842 0 -172 -45 -402 -114 -781 -234
-270 -85 -442 -133 -600 -166 -120 -26 -155 -29 -320 -29 -163 0 -193 3 -255
22 -194 61 -313 205 -323 389 -7 139 53 283 157 377 24 21 41 40 39 41 -1 2
-34 -3 -73 -10z"/>
</g>
</svg>
